<?xml version="1.0"?><svg width="1600" height="1200" xmlns="http://www.w3.org/2000/svg">
 <title>new high def mountain2</title>
 <defs>
  <linearGradient id="svg_1" x2="1" y2="1">
   <stop stop-color="#00bf00" offset="0"/>
   <stop stop-color="#000000" stop-opacity="0.996094" offset="1"/>
  </linearGradient>
 </defs>
 <metadata id="metadata2377">image/svg+xml</metadata>
 <g>
  <title>Layer 1</title>
  <path d="m2034.869751,1446.906616c3.146484,2.086304 6.670898,3.602295 10.113037,5.264282c0.432373,0.091797 0.832764,0.309814 1.263916,0.405029c-3.143799,-3.283813 -7.200684,-4.654663 -11.376953,-5.669312z" id="path3556" stroke-width="1px" fill-rule="nonzero" fill="url(#svg_1)"/>
  <path d="m1346.77002,167.280045c7.79248,1.444916 3.327637,0.816925 -0.632202,0.404984c0.219116,-0.124817 0.412964,-0.280167 0.632202,-0.404984z" id="path3554" stroke-width="1px" fill-rule="nonzero" fill="url(#svg_1)"/>
  <path d="m1600.22522,563.518921c0.251099,2.783203 0.663208,5.514709 0.842529,8.301392c-5.550049,0.10907 -3.661865,-4.099731 -0.842529,-8.301392z" id="path3552" stroke-width="1px" fill-rule="nonzero" fill="url(#svg_1)"/>
  <path d="m167.982788,1229.856201c0.400513,3.605713 -1.17746,7.059692 -7.373962,9.313477c2.397034,-3.122925 4.865326,-6.283081 7.373962,-9.313477z" id="path3548" stroke-width="1px" fill-rule="nonzero" fill="url(#svg_1)"/>
  <path d="m490.121429,1241.599365c3.355835,0.575439 6.772705,1.141846 10.112915,1.822266c-3.516235,1.32019 -6.911743,0.261719 -10.112915,-1.822266z" id="path3537" stroke-width="1px" fill-rule="nonzero" fill="url(#svg_1)"/>
  <g id="svg_2">
   <g id="svg_28">
    <path d="m1223.052612,148.230438c-2.684937,0.2854 -5.468506,1.566589 -8.609619,4.24472c-5.932007,6.345215 -11.023193,13.072937 -14.569336,21.052505c-6.42749,13.099167 -12.415039,26.406433 -18.763794,39.542328c-8.23645,17.674026 -16.790771,35.333984 -27.570557,51.693039c-8.699951,12.465759 -17.87146,24.642395 -29.461182,34.741455c-4.457642,4.277679 -10.5896,8.679443 -13.033569,13.899048c-1.81604,3.877045 5.107666,10.236908 9.008057,8.312653c5.472412,-2.703369 9.671021,-8.709625 13.842285,-13.334686c9.698486,-12.643677 17.006714,-26.805389 24.546753,-40.723785c9.474731,-17.241013 19.05896,-34.503738 28.836426,-51.582932c6.820435,-12.735794 14.687256,-24.796249 23.178711,-36.515259c3.427856,-5.755981 8.412964,-9.700562 13.657349,-13.557938c4.025757,4.897217 5.904907,11.353775 8.23999,17.172943c3.290405,8.331543 5.979492,16.847595 8.41333,25.445953c2.311401,8.561447 7.626587,12.060181 15.512695,15.102356c5.063477,1.019547 9.855347,-0.418137 14.738281,-1.560898c0.523071,-0.459381 0.562134,-0.464264 0.762695,-0.649734c-0.283203,0.289017 -0.318115,0.467224 1.116455,-0.443588c12.450439,6.681396 22.687622,16.179214 32.401855,26.156708c11.852905,12.905624 20.855713,27.76384 28.71814,43.210953c3.573364,6.010864 5.786743,12.427063 7.276855,18.981995c-1.321289,0.251984 -2.677002,0.493439 -3.998413,0.748779c-10.209229,3.205658 -10.885498,10.592957 -8.664429,19.451508c1.273926,4.108063 2.783691,8.123413 4.505371,12.041046c-2.299683,-0.836548 -4.564453,-1.684601 -6.864136,-2.524506c-6.061768,-1.887878 -12.269287,-2.093842 -18.551758,-2.017761c-6.868042,-0.06839 -11.907837,2.659058 -17.1875,6.534851c-2.177856,2.598328 -4.662598,4.874359 -7.115967,7.175262c-2.613892,1.558472 -5.770996,1.030029 -8.699951,1.165588c-8.794434,-1.047577 -17.576416,-1.485321 -26.394409,-1.350037c-10.650269,3.588684 -13.174194,12.728882 -17.297852,21.991821c-3.671997,9.24649 -9.808716,16.156616 -17.329468,22.482544c-5.405518,3.949432 -11.400757,3.807129 -17.616211,4.142273c-5.031616,-1.260193 -6.694946,-5.142029 -9.414795,-9.000977c-2.913574,-5.424713 -4.843506,-11.260925 -7.057129,-16.973724c-2.519775,-8.08374 -7.693359,-13.943665 -13.613647,-19.774261c-8.342896,-6.23703 -17.388794,-6.290588 -27.330811,-6.046722c-6.734253,0.725372 -13.40979,1.736267 -20.147949,2.378113c0.090454,-1.244415 -3.338379,-4.274963 -4.368164,-5.552734c-4.522095,-4.516235 -9.620605,-5.064362 -15.69043,-5.49173c-0.09082,-0.001526 -0.157959,0.0271 -0.246948,0.026489c-0.029907,-0.000183 -0.053101,0.008789 -0.082764,0.008301c-2.37915,-0.377502 -4.408203,-0.206207 -5.416138,0.736877c-3.378174,1.045013 -5.389038,3.27829 -8.2229,6.96759c-0.20105,0.261017 -0.118652,0.634979 0.098145,0.883423c1.318726,1.511627 2.538696,2.834778 3.767578,3.90921c-1.16626,2.011475 -2.386719,3.968536 -3.509033,5.899323c-7.927979,12.588379 -17.76416,23.866455 -27.868652,34.816589c-13.583252,14.79071 -28.066162,28.719879 -42.204651,43.000977c-14.198669,14.653229 -29.173645,28.627594 -43.895325,42.773346c-14.596436,13.384521 -29.06366,26.891418 -43.770264,40.159576c-14.119202,13.58197 -28.772278,26.589111 -43.412292,39.631714c-15.597778,14.600647 -32.062866,28.186401 -49.169128,41.056091c-13.576111,9.054688 -27.440857,17.746094 -41.611328,25.86969c-19.764648,20.341309 4.702637,29.325317 24.505737,24.064575c23.811646,-8.106079 47.960388,-14.519653 72.828491,-18.606323c12.508423,-1.819214 25.129639,-3.314392 37.702332,-3.34259c-5.146362,9.548279 -10.811462,18.772034 -15.394592,28.620178c-8.066895,17.534424 -0.892639,31.913391 18.724609,35.002014c16.692871,-2.570374 32.787964,-7.827576 49.447815,-10.845642c13.261963,-1.759705 26.610046,-2.383789 39.934692,-3.501526c14.698181,-1.614746 29.367859,-3.275452 44.160217,-3.702026c7.051392,-0.842834 13.755005,-0.257568 20.064819,1.37146c-0.292358,0.610046 -0.493652,1.08606 -0.873779,1.879456c-6.930542,10.658691 -14.264404,20.468079 -13.852539,33.49646c5.451904,17.132568 20.940796,13.158691 34.351074,8.472839c10.71228,-4.192566 21.846191,-6.198547 33.239502,-6.773499c3.192017,1.551514 4.045166,3.063965 6.294067,6.406921c6.553223,8.874634 15.583252,14.854614 25.093384,20.348022c8.511108,4.812866 17.548828,7.267029 26.921631,8.363647c-1.643433,0.641724 -3.232056,1.297546 -4.859131,1.977905c-7.686035,4.513184 -13.358398,9.820068 -21.712524,13.032104c-0.310669,0.119629 0.035278,0.976501 0.345825,0.856628c8.255859,-3.173157 15.827515,-3.053345 24.621582,-4.072388c18.638428,-4.146423 37.205933,-8.927551 56.300537,-10.676575c15.819214,-1.632446 32.271606,-0.532349 47.403198,-5.997437c12.018188,-6.06134 15.40686,-14.841003 10.645752,-27.139465c-2.523804,-7.3974 -5.0354,-13.426819 1.978027,-18.172607c7.445557,-5.246826 15.964722,-8.698486 25.160156,-10.468567c25.199585,-6.681641 50.572266,-12.661682 76.373047,-16.706116c31.340454,-4.650635 63.058228,-7.897949 94.508545,-1.963745c4.556519,0.669861 11.550049,1.688782 17.930908,3.141602c2.201172,4.551697 5.511353,7.432556 9.273438,10.722351c5.539307,3.751709 11.617432,3.617432 17.997681,3.783264c18.269043,-0.606201 23.104126,-26.821838 8.805786,-36.941406c-1.823608,-0.387695 -3.65979,-0.666138 -5.515137,-0.881409c0.086548,0.074036 0.192871,0.134216 0.275024,0.215271c-0.259277,-0.10614 -0.522827,-0.225647 -0.786377,-0.324463c-4.104248,-0.44104 -8.243652,-0.479675 -12.446411,-0.306763c1.403442,-1.06488 3.302246,-1.688843 5.637573,-1.734863c0.86499,0.204773 1.737549,0.250427 2.622559,0.373657c-0.204712,-0.109131 -0.421143,-0.218506 -0.62146,-0.341797c-5.912842,-3.617859 -11.790039,-7.235291 -16.688599,-12.213928c-9.360474,-9.379028 -17.973389,-19.241089 -26.658203,-29.201843c-12.882813,-16.388733 -25.899292,-32.752686 -36.081177,-50.967712c-14.549561,-23.451233 -28.623901,-47.131317 -42.395142,-71.026306c-13.401611,-24.223267 -26.201782,-48.799194 -40.165771,-72.725159c-10.241455,-17.788605 -21.115234,-35.207886 -31.309082,-53.016266c-4.403198,-8.108826 -8.023682,-16.649048 -9.199097,-25.769287c1.257813,-0.323151 2.472778,-0.649597 3.714844,-1.043854c8.338501,-4.390747 13.114624,-10.014893 8.83374,-19.469025c-5.991455,-7.816528 -13.118896,-14.642181 -19.161255,-22.438324c-10.869995,-13.900818 -20.906494,-28.387421 -31.859131,-42.227631c-8.959229,-11.250717 -18.43811,-22.11377 -26.217773,-34.209061c-5.378296,-5.227661 -9.297485,-8.777191 -17.435669,-6.932938c-1.722046,0.383011 -3.317871,1.085342 -5.122437,1.112274c-1.407227,-0.660233 -3.652222,-0.573318 -4.22229,-1.991821c-4.556152,-7.314346 -8.459839,-14.893188 -10.987671,-23.141006c-2.480591,-8.52681 -4.15918,-17.455582 -8.322632,-25.374634c-4.949951,-3.46106 -9.195435,-5.77446 -13.669189,-5.298996l0,0l0,0z" stroke-width="1px" fill-rule="nonzero" fill="#bfbfbf" id="svg_29"/>
   </g>
   <g id="svg_31">
    <path d="m382.698303,242.386826c-2.23761,0.221497 -4.55719,1.216125 -7.174835,3.295105c-4.943665,4.925659 -9.18631,10.148193 -12.141449,16.342514c-5.356537,10.168518 -10.34613,20.498657 -15.637115,30.69574c-6.863586,13.720032 -13.992493,27.429077 -22.975769,40.128052c-7.250153,9.67688 -14.893372,19.129395 -24.551605,26.968994c-3.715088,3.320648 -8.824982,6.737518 -10.861725,10.789429c-1.513397,3.009705 4.256592,7.946747 7.506836,6.452972c4.560486,-2.098511 8.059387,-6.761108 11.535461,-10.351379c8.082458,-9.815002 14.172668,-20.80835 20.45639,-31.612854c7.895538,-13.383881 15.882843,-26.784454 24.030762,-40.042572c5.684082,-9.886505 12.239716,-19.248749 19.316101,-28.345886c2.856873,-4.468262 7.011139,-7.530396 11.38147,-10.524811c3.354797,3.801636 4.920776,8.813629 6.866882,13.330933c2.742065,6.46756 4.983002,13.078369 7.011139,19.753082c1.926239,6.646118 6.355621,9.362061 12.92749,11.723602c4.219727,0.791412 8.21344,-0.324524 12.282349,-1.21167c0.435974,-0.356628 0.468414,-0.360443 0.635468,-0.504395c-0.235596,0.224365 -0.265167,0.36264 0.930573,-0.34436c10.375702,5.186554 18.906891,12.559448 27.002106,20.304901c9.877777,10.018219 17.38028,21.552368 23.932495,33.543488c2.978088,4.666168 4.822601,9.646881 6.063995,14.735474c-1.100586,0.195465 -2.230896,0.382874 -3.331696,0.581055c-8.508301,2.488586 -9.07193,8.223083 -7.220764,15.099731c1.061493,3.189056 2.319672,6.306122 3.754608,9.34726c-1.916504,-0.649414 -3.80368,-1.307739 -5.720093,-1.959808c-5.051971,-1.465332 -10.225067,-1.625183 -15.460388,-1.566223c-5.723511,-0.053192 -9.923401,2.064087 -14.323303,5.072845c-1.815094,2.016937 -3.88559,3.783752 -5.930023,5.570007c-2.178619,1.209686 -4.809296,0.7995 -7.250183,0.904846c-7.328827,-0.813202 -14.647552,-1.153198 -21.996002,-1.048035c-8.875214,2.785797 -10.978638,9.880981 -14.415161,17.071655c-3.060059,7.177734 -8.174164,12.541992 -14.441315,17.452698c-4.504761,3.065765 -9.501038,2.955444 -14.680573,3.215576c-4.193298,-0.978302 -5.579285,-3.991577 -7.846313,-6.987366c-2.427643,-4.21106 -4.036194,-8.741516 -5.880829,-13.17627c-2.099854,-6.275024 -6.411377,-10.824219 -11.345184,-15.350311c-6.952179,-4.841644 -14.49057,-4.883301 -22.775879,-4.693756c-5.612244,0.562988 -11.175262,1.347809 -16.790466,1.845947c0.075317,-0.965942 -2.782196,-3.318542 -3.640198,-4.310455c-3.768494,-3.50592 -8.017395,-3.931213 -13.075806,-4.263031c-0.075623,-0.001251 -0.131348,0.021118 -0.205811,0.020538c-0.024872,-0.000214 -0.04425,0.006805 -0.068634,0.006439c-1.983154,-0.29306 -3.67392,-0.160034 -4.514038,0.571838c-2.815033,0.811371 -4.49057,2.545044 -6.852509,5.408997c-0.167389,0.202637 -0.098938,0.492889 0.082001,0.685791c1.098877,1.17337 2.115448,2.200592 3.139618,3.034637c-0.971832,1.561188 -1.988953,3.080597 -2.924377,4.579346c-6.60675,9.772125 -14.803635,18.527069 -23.224319,27.027405c-11.319839,11.481628 -23.389221,22.294586 -35.171295,33.380585c-11.832886,11.374939 -24.312103,22.222961 -36.580673,33.203949c-12.16423,10.390137 -24.220428,20.875122 -36.476227,31.174927c-11.76638,10.543335 -23.977257,20.640503 -36.177643,30.765076c-12.998543,11.334351 -26.719749,21.880371 -40.975346,31.870911c-11.313633,7.028931 -22.867931,13.77594 -34.676977,20.082092c-16.471085,15.790344 3.919008,22.764465 20.421976,18.680664c19.843384,-6.292419 39.967949,-11.271362 60.692001,-14.443542c10.424042,-1.412415 20.941864,-2.572937 31.419342,-2.594849c-4.288834,7.412109 -9.009987,14.572327 -12.82901,22.217102c-6.722748,13.611572 -0.743942,24.773682 15.604019,27.171204c13.911163,-1.995178 27.324219,-6.076355 41.207657,-8.41925c11.052002,-1.365845 22.175674,-1.850342 33.279633,-2.718018c12.248947,-1.253479 24.473984,-2.542725 36.801331,-2.87384c5.876114,-0.654419 11.462723,-0.200012 16.721024,1.064697c-0.243805,0.473389 -0.411346,0.843018 -0.728333,1.458923c-5.775604,8.27417 -11.887238,15.888794 -11.543945,26.002563c4.543427,13.2995 17.45105,10.214539 28.626801,6.577087c8.926971,-3.254395 18.205566,-4.811829 27.700043,-5.257874c2.660248,1.204285 3.371155,2.378479 5.245239,4.973267c5.461334,6.889282 12.986603,11.531555 20.91153,15.795837c7.092987,3.736145 14.624939,5.641357 22.435242,6.492493c-1.369354,0.49823 -2.692932,1.007202 -4.049194,1.535522c-6.40509,3.503418 -11.132446,7.622803 -18.09436,10.116333c-0.258759,0.092957 0.029572,0.758057 0.2883,0.665161c6.880035,-2.463379 13.18988,-2.370361 20.518555,-3.161499c15.532288,-3.218689 31.005554,-6.930237 46.91806,-8.287964c13.183258,-1.267212 26.894073,-0.413208 39.503937,-4.655762c10.015167,-4.705078 12.839233,-11.520508 8.871857,-21.067383c-2.10321,-5.742554 -4.196655,-10.423035 1.647888,-14.107117c6.2052,-4.072937 13.304413,-6.752563 20.967651,-8.126465c21.000122,-5.186829 42.144257,-9.829102 63.645782,-12.968506c26.117737,-3.610229 52.549683,-6.131165 78.759216,-1.524414c3.796997,0.519958 9.625244,1.310974 14.942505,2.438599c1.834595,3.53363 4.593201,5.769836 7.728455,8.323669c4.616028,2.912292 9.680969,2.808105 14.998413,2.936829c15.224243,-0.470764 19.253845,-20.821106 7.338257,-28.676758c-1.519775,-0.301086 -3.049988,-0.517212 -4.596252,-0.684265c0.072144,0.057434 0.160645,0.104065 0.229187,0.167053c-0.216003,-0.082214 -0.43573,-0.17511 -0.65509,-0.251892c-3.42041,-0.342285 -6.870178,-0.372192 -10.372559,-0.238037c1.169739,-0.82666 2.752258,-1.311035 4.698181,-1.34668c0.720764,0.158875 1.448059,0.194336 2.185364,0.2901c-0.170471,-0.0849 -0.350708,-0.169617 -0.517578,-0.265503c-4.927612,-2.808411 -9.8255,-5.616577 -13.907471,-9.481323c-7.800598,-7.280762 -14.978516,-14.936462 -22.215637,-22.668701c-10.736145,-12.722168 -21.583435,-25.424988 -30.068604,-39.564941c-12.125061,-18.204468 -23.85376,-36.586975 -35.330139,-55.135986c-11.168579,-18.804138 -21.835693,-37.881592 -33.472717,-56.454895c-8.534393,-13.808868 -17.596375,-27.331055 -26.0914,-41.155151c-3.669098,-6.29483 -6.686523,-12.924286 -7.665985,-20.004181c1.048065,-0.250824 2.060669,-0.504364 3.095947,-0.810364c6.948639,-3.408234 10.929138,-7.77417 7.361481,-15.113281c-4.992737,-6.06778 -10.932648,-11.366394 -15.968323,-17.418304c-9.058441,-10.790894 -17.422424,-22.036469 -26.549835,-32.780396c-7.466339,-8.733521 -15.365204,-17.16626 -21.848724,-26.555603c-4.481842,-4.058044 -7.748077,-6.813477 -14.529785,-5.381744c-1.434937,0.297211 -2.765045,0.842438 -4.268799,0.863281c-1.172913,-0.51239 -3.043701,-0.444977 -3.518768,-1.546143c-3.796997,-5.677917 -7.050262,-11.561279 -9.15683,-17.963776c-2.067139,-6.619263 -3.466248,-13.550323 -6.935638,-19.697739c-4.124847,-2.686691 -7.662903,-4.482559 -11.391113,-4.113495l0,0z" stroke-width="1px" fill-rule="nonzero" fill="#bfbfbf" id="svg_32"/>
   </g>
   <g id="svg_27">
    <path d="m804.159973,107.069359c-3.333496,0.357613 -6.789246,1.96302 -10.688904,5.318817c-7.364929,7.95076 -13.685852,16.38073 -18.088196,26.379463c-7.980164,16.413696 -15.413818,33.088181 -23.296082,49.547867c-10.225281,22.146454 -20.846252,44.274979 -34.229492,64.773361c-10.800842,15.619904 -22.187866,30.877899 -36.576599,43.532318c-5.534729,5.360046 -13.147278,10.87561 -16.181641,17.415894c-2.254517,4.858093 6.341431,12.827393 11.183655,10.416016c6.794067,-3.387329 12.006897,-10.913483 17.185364,-16.708679c12.041321,-15.843109 21.11438,-33.588226 30.475952,-51.028503c11.762695,-21.603638 23.661926,-43.234238 35.800659,-64.635147c8.468201,-15.958405 18.234741,-31.070572 28.776978,-45.754791c4.256104,-7.212463 10.445068,-12.155167 16.956299,-16.98877c4.997742,6.136475 7.330811,14.2267 10.230042,21.51828c4.085022,10.439774 7.423584,21.110687 10.444824,31.884811c2.869873,10.727722 9.468811,15.111786 19.259705,18.923721c6.286194,1.27742 12.236206,-0.52388 18.298157,-1.955841c0.649292,-0.575607 0.697937,-0.581787 0.946594,-0.81424c-0.351074,0.362198 -0.39502,0.58548 1.386169,-0.555771c15.457886,8.371918 28.167542,20.273026 40.2276,32.775375c14.71582,16.171097 25.892883,34.789047 35.654541,54.144608c4.436523,7.531982 7.184753,15.571716 9.034241,23.785522c-1.640076,0.315521 -3.323547,0.617981 -4.963623,0.937897c-12.675842,4.016968 -13.515564,13.273376 -10.757751,24.373413c1.581848,5.147644 3.456055,10.179016 5.59375,15.088074c-2.855103,-1.04834 -5.666809,-2.111023 -8.522034,-3.163605c-7.52594,-2.365234 -15.232727,-2.623352 -23.032471,-2.528198c-8.526978,-0.085693 -14.78363,3.332092 -21.338623,8.188477c-2.704102,3.255829 -5.78894,6.107697 -8.83429,8.990845c-3.245728,1.95282 -7.165283,1.290527 -10.801514,1.460663c-10.918518,-1.312592 -21.821655,-1.861359 -32.769653,-1.691864c-13.222046,4.497009 -16.35553,15.949646 -21.475464,27.556549c-4.558899,11.586304 -12.177612,20.244812 -21.514709,28.171417c-6.710938,4.948792 -14.154297,4.77066 -21.870911,5.19043c-6.24707,-1.57901 -8.311829,-6.442993 -11.689392,-11.278473c-3.616516,-6.797363 -6.012939,-14.110321 -8.761108,-21.268707c-3.12854,-10.12915 -9.551575,-17.471985 -16.901978,-24.777863c-10.357361,-7.815094 -21.587952,-7.882385 -33.931274,-7.57666c-8.361023,0.908966 -16.648865,2.175507 -25.014282,2.979675c0.112183,-1.559204 -4.144958,-5.356537 -5.423279,-6.957642c-5.614197,-5.659088 -11.944275,-6.345795 -19.480164,-6.881348c-0.112671,-0.001923 -0.195557,0.034149 -0.306519,0.033142c-0.037109,-0.000214 -0.06604,0.011108 -0.102417,0.010498c-2.954407,-0.473114 -5.473206,-0.258362 -6.724731,0.923096c-4.194092,1.309631 -6.690247,4.108093 -10.208801,8.730774c-0.249451,0.32724 -0.1474,0.795685 0.121826,1.107147c1.637329,1.893982 3.151855,3.552185 4.677612,4.898315c-1.447754,2.520111 -2.963318,4.972656 -4.356689,7.391968c-9.842773,15.77359 -22.054443,29.905579 -34.599487,43.626556c-16.86438,18.533173 -34.845032,35.98703 -52.397766,53.881714c-17.628723,18.361053 -36.220154,35.871552 -54.497803,53.59668c-18.122223,16.771301 -36.08316,33.695801 -54.341827,50.321289c-17.529388,17.018677 -35.721161,33.3172 -53.897247,49.659729c-19.365021,18.295593 -39.806763,35.318604 -61.044678,51.444885c-16.85495,11.345886 -34.068451,22.236511 -51.661407,32.415771c-24.538757,25.488464 5.83844,36.745544 30.42453,30.153931c29.562408,-10.15741 59.543884,-18.193909 90.418365,-23.314575c15.529602,-2.279785 31.198975,-4.153015 46.808289,-4.188293c-6.389648,11.964294 -13.423187,23.522095 -19.112793,35.862061c-10.01535,21.971313 -1.108307,39.988403 23.247009,43.858765c20.724701,-3.220825 40.707306,-9.808289 61.390625,-13.590271c16.465302,-2.204468 33.037323,-2.986633 49.579865,-4.38739c18.24823,-2.023132 36.46106,-4.104126 54.826233,-4.638733c8.754028,-1.056213 17.077148,-0.322632 24.910889,1.718689c-0.363098,0.764099 -0.612732,1.360718 -1.085144,2.354919c-8.604248,13.356018 -17.709473,25.647156 -17.197937,41.972229c6.76886,21.467773 25.998596,16.488342 42.647949,10.616699c13.299316,-5.253357 27.12262,-7.767029 41.267212,-8.487305c3.963379,1.94397 5.022278,3.839355 7.81427,8.028015c8.136475,11.120117 19.347351,18.613525 31.153931,25.497009c10.567017,6.030579 21.788208,9.105835 33.423706,10.479919c-2.040039,0.803833 -4.011841,1.625671 -6.03241,2.478455c-9.542175,5.655151 -16.584961,12.304749 -26.956665,16.329407c-0.385376,0.150085 0.044006,1.223572 0.429321,1.073608c10.25,-3.976013 19.650208,-3.826294 30.56842,-5.103027c23.140076,-5.195557 46.192017,-11.186646 69.898315,-13.377991c19.640198,-2.045715 40.066528,-0.667114 58.852234,-7.515259c14.920654,-7.59491 19.128174,-18.59613 13.217468,-34.006531c-3.133423,-9.269104 -6.252197,-16.824341 2.4552,-22.770996c9.244324,-6.574402 19.820679,-10.899597 31.237122,-13.117371c31.285767,-8.372437 62.786255,-15.865723 94.81897,-20.933228c38.909912,-5.827637 78.288208,-9.896667 117.335083,-2.46106c5.656616,0.839661 14.339233,2.116272 22.261353,3.936768c2.732666,5.703674 6.842529,9.313171 11.513428,13.435608c6.876953,4.700745 14.422729,4.532776 22.344604,4.740479c22.681152,-0.759827 28.684326,-33.608765 10.932617,-46.28894c-2.264282,-0.485962 -4.543701,-0.834778 -6.8479,-1.104431c0.10791,0.092773 0.240112,0.16803 0.341797,0.269653c-0.321777,-0.132751 -0.649048,-0.282898 -0.976196,-0.406616c-5.095215,-0.55249 -10.234863,-0.600708 -15.452759,-0.384338c1.742554,-1.33429 4.099976,-2.11615 6.99939,-2.173645c1.07373,0.256287 2.157227,0.313538 3.255615,0.468384c-0.253784,-0.137146 -0.522461,-0.274048 -0.77124,-0.428711c-7.341064,-4.533081 -14.637695,-9.06604 -20.719116,-15.304504c-11.621216,-11.752319 -22.314819,-24.10968 -33.096558,-36.590942c-15.994873,-20.535583 -32.154907,-41.040283 -44.795898,-63.864319c-18.063843,-29.385071 -35.537354,-59.057251 -52.634644,-88.99823c-16.638916,-30.352875 -32.53064,-61.147278 -49.86731,-91.127472c-12.714355,-22.289886 -26.215149,-44.116852 -38.870789,-66.431152c-5.466309,-10.160675 -9.961609,-20.861908 -11.420776,-32.29007c1.561401,-0.404938 3.069824,-0.813873 4.611877,-1.307953c10.352539,-5.501587 16.282715,-12.54895 10.967712,-24.395386c-7.43866,-9.79422 -16.287354,-18.347015 -23.78949,-28.115906c-13.495361,-17.418243 -25.955933,-35.570526 -39.553894,-52.912903c-11.123108,-14.097382 -22.890869,-27.709167 -32.549988,-42.865067c-6.67688,-6.550415 -11.542969,-10.998138 -21.646362,-8.687088c-2.137756,0.479752 -4.119263,1.359894 -6.359436,1.393646c-1.747681,-0.827377 -4.534729,-0.71846 -5.242126,-2.495865c-5.657043,-9.165039 -10.503784,-18.661743 -13.642151,-28.996445c-3.079407,-10.684479 -5.163696,-21.872498 -10.332581,-31.795326c-6.144958,-4.336853 -11.416199,-7.235611 -16.970398,-6.639862l0,0l0,0z" stroke-width="1px" fill-rule="nonzero" fill="#7f7f7f" id="svg_25"/>
   </g>
  </g>
 </g>
</svg>